<svg xmlns="http://www.w3.org/2000/svg" version="1.1" xmlns:xlink="http://www.w3.org/1999/xlink" xmlns:svgjs="http://svgjs.dev/svgjs" width="32" height="32"><svg xmlns="http://www.w3.org/2000/svg" width="32" height="32" viewBox="0 0 16 16"><!-- Icon from Gravity UI Icons by YANDEX LLC - https://github.com/gravity-ui/icons/blob/main/LICENSE --><path fill="currentColor" fill-rule="evenodd" d="M5.5 12a4 4 0 1 1 0-8a4 4 0 0 1 0 8m3.775 0A5.5 5.5 0 0 0 11 8a5.5 5.5 0 0 0-1.725-4H10.5a4 4 0 0 1 0 8zM0 8a5.5 5.5 0 0 1 5.5-5.5h5a5.5 5.5 0 1 1 0 11h-5A5.5 5.5 0 0 1 0 8" clip-rule="evenodd"></path></svg><style>@media (prefers-color-scheme: light) { :root { filter: none; } }
@media (prefers-color-scheme: dark) { :root { filter: none; } }
</style></svg>